<svg height="2558" width="720" xmlns="http://www.w3.org/2000/svg">
<rect height="2558" fill="#555" width="720"></rect>
<text fill="#7f7" font-family="Courier New" font-size="12" xml:space="preserve">
<tspan x="10" y="26"></tspan>
<tspan x="10" y="42">&gt; npmdoc-mocha-phantomjs@0.0.1 test /home/travis/build/npmdoc/node-npmdoc-mocha-phantomjs</tspan>
<tspan x="10" y="58">&gt; (set -e; export PORT=$(utility2 shServerPortRandom); utility2 test test.js)</tspan>
<tspan x="10" y="74"></tspan>
<tspan x="10" y="90"></tspan>
<tspan x="10" y="106">[MODE_BUILD=npmTest] - 2017-04-07T06:18:34Z - npm-testing /home/travis/build/npmdoc/node-npmdoc-\</tspan>
<tspan x="10" y="122">mocha-phantomjs</tspan>
<tspan x="10" y="138"></tspan>
<tspan x="10" y="154"></tspan>
<tspan x="10" y="170">covering $ /home/travis/.nvm/versions/node/v6.10.2/bin/node /home/travis/build/npmdoc/node-npmdo\</tspan>
<tspan x="10" y="186">c-mocha-phantomjs/test.js</tspan>
<tspan x="10" y="202">merging file:///home/travis/build/npmdoc/node-npmdoc-mocha-phantomjs/tmp/build/test-report.json \</tspan>
<tspan x="10" y="218">to test-report</tspan>
<tspan x="10" y="234">&gt; server listening on http-port 44701</tspan>
<tspan x="10" y="250"></tspan>
<tspan x="10" y="266">  Usage: test [options] page</tspan>
<tspan x="10" y="282"></tspan>
<tspan x="10" y="298">  Options:</tspan>
<tspan x="10" y="314"></tspan>
<tspan x="10" y="330">    -h, --help                   output usage information</tspan>
<tspan x="10" y="346">    -V, --version                output the version number</tspan>
<tspan x="10" y="362">    -R, --reporter &lt;name&gt;        specify the reporter to use</tspan>
<tspan x="10" y="378">    -f, --file &lt;filename&gt;        specify the file to dump reporter output</tspan>
<tspan x="10" y="394">    -t, --timeout &lt;timeout&gt;      specify the test startup timeout to use</tspan>
<tspan x="10" y="410">    -g, --grep &lt;pattern&gt;         only run tests matching &lt;pattern&gt;</tspan>
<tspan x="10" y="426">    -i, --invert                 invert --grep matches</tspan>
<tspan x="10" y="442">    -b, --bail                   exit on the first test failure</tspan>
<tspan x="10" y="458">    -A, --agent &lt;userAgent&gt;      specify the user agent to use</tspan>
<tspan x="10" y="474">    -c, --cookies &lt;Object&gt;       phantomjs cookie object http://git.io/RmPxgA</tspan>
<tspan x="10" y="490">    -h, --header &lt;name&gt;=&lt;value&gt;  specify custom header</tspan>
<tspan x="10" y="506">    -k, --hooks &lt;path&gt;           path to hooks module</tspan>
<tspan x="10" y="522">    -s, --setting &lt;key&gt;=&lt;value&gt;  specify specific phantom settings</tspan>
<tspan x="10" y="538">    -v, --view &lt;width&gt;x&lt;height&gt;  specify phantom viewport size</tspan>
<tspan x="10" y="554">    -C, --no-color               disable color escape codes</tspan>
<tspan x="10" y="570">    -p, --path &lt;path&gt;            path to PhantomJS binary</tspan>
<tspan x="10" y="586">    --ignore-resource-errors     ignore resource errors</tspan>
<tspan x="10" y="602"></tspan>
<tspan x="10" y="618">  Any other options are passed to phantomjs (see `phantomjs --help`)</tspan>
<tspan x="10" y="634"></tspan>
<tspan x="10" y="650">  Examples:</tspan>
<tspan x="10" y="666"></tspan>
<tspan x="10" y="682">    $ mocha-phantomjs -R dot /test/file.html</tspan>
<tspan x="10" y="698">    $ mocha-phantomjs http://testserver.com/file.html</tspan>
<tspan x="10" y="714">    $ mocha-phantomjs -p ~/bin/phantomjs /test/file.html</tspan>
<tspan x="10" y="730"></tspan>
<tspan x="10" y="746">created apidoc file:///home/travis/build/npmdoc/node-npmdoc-mocha-phantomjs/tmp/build/apidoc.htm\</tspan>
<tspan x="10" y="762">l</tspan>
<tspan x="10" y="778"></tspan>
<tspan x="10" y="794"></tspan>
<tspan x="10" y="810">browserTest - created electron entry-page /home/travis/build/npmdoc/node-npmdoc-mocha-phantomjs/\</tspan>
<tspan x="10" y="826">tmp/electron.15b47107e660.3420978153331.html</tspan>
<tspan x="10" y="842"></tspan>
<tspan x="10" y="858">[node test-case 1 of 6 passed] - testCase_buildLib_default</tspan>
<tspan x="10" y="874">[node test-case 2 of 6 passed] - testCase_buildReadme_default</tspan>
<tspan x="10" y="890">[node test-case 3 of 6 passed] - testCase_buildTest_default</tspan>
<tspan x="10" y="906"></tspan>
<tspan x="10" y="922">browserTest - created electron entry-page /home/travis/build/npmdoc/node-npmdoc-mocha-phantomjs/\</tspan>
<tspan x="10" y="938">tmp/electron.15b47107e980.f735a94878e2c.html</tspan>
<tspan x="10" y="954"></tspan>
<tspan x="10" y="970">Xlib:  extension "RANDR" missing on display ":99.0".</tspan>
<tspan x="10" y="986">Xlib:  extension "RANDR" missing on display ":99.0".</tspan>
<tspan x="10" y="1002">&gt; server listening on http-port 62240</tspan>
<tspan x="10" y="1018">merging file:///home/travis/build/npmdoc/node-npmdoc-mocha-phantomjs/tmp/build/test-report.json \</tspan>
<tspan x="10" y="1034">to test-report</tspan>
<tspan x="10" y="1050">Xlib:  extension "RANDR" missing on display ":99.0".</tspan>
<tspan x="10" y="1066">[5886:0407/061835:WARNING:audio_manager.cc(314)] Multiple instances of AudioManager detected</tspan>
<tspan x="10" y="1082">[5886:0407/061835:WARNING:audio_manager.cc(275)] Multiple instances of AudioManager detected</tspan>
<tspan x="10" y="1098">merging file:///home/travis/build/npmdoc/node-npmdoc-mocha-phantomjs/tmp/build/test-report.json \</tspan>
<tspan x="10" y="1114">to test-report</tspan>
<tspan x="10" y="1130">[5923:0407/061835:ERROR:sandbox_linux.cc(343)] InitializeSandbox() called with multiple threads \</tspan>
<tspan x="10" y="1146">in process gpu-process. </tspan>
<tspan x="10" y="1162">Xlib:  extension "RANDR" missing on display ":99.0".</tspan>
<tspan x="10" y="1178">[5890:0407/061835:WARNING:audio_manager.cc(314)] Multiple instances of AudioManager detected</tspan>
<tspan x="10" y="1194">[5890:0407/061835:WARNING:audio_manager.cc(275)] Multiple instances of AudioManager detected</tspan>
<tspan x="10" y="1210">[5886:0407/061835:ERROR:browser_gpu_channel_host_factory.cc(131)] Failed to create channel.</tspan>
<tspan x="10" y="1226">[5948:0407/061835:ERROR:sandbox_linux.cc(343)] InitializeSandbox() called with multiple threads \</tspan>
<tspan x="10" y="1242">in process gpu-process. </tspan>
<tspan x="10" y="1258">[5890:0407/061835:ERROR:browser_gpu_channel_host_factory.cc(131)] Failed to create channel.</tspan>
<tspan x="10" y="1274"></tspan>
<tspan x="10" y="1290">browserTest - opened url /home/travis/build/npmdoc/node-npmdoc-mocha-phantomjs/tmp/build/apidoc.\</tspan>
<tspan x="10" y="1306">html</tspan>
<tspan x="10" y="1322"></tspan>
<tspan x="10" y="1338"></tspan>
<tspan x="10" y="1354">browserTest - opened url http://127.0.0.1:44701?modeTest=1</tspan>
<tspan x="10" y="1370"></tspan>
<tspan x="10" y="1386">[5890:0407/061837:INFO:CONSOLE(250)] "----------|-----------|-----------|-----------|-----------\</tspan>
<tspan x="10" y="1402">|</tspan>
<tspan x="10" y="1418">File      |   % Stmts |% Branches |   % Funcs |   % Lines |</tspan>
<tspan x="10" y="1434">----------|-----------|-----------|-----------|-----------|</tspan>
<tspan x="10" y="1450">----------|-----------|-----------|-----------|-----------|</tspan>
<tspan x="10" y="1466">All files |       100 |       100 |       100 |       100 |</tspan>
<tspan x="10" y="1482">----------|-----------|-----------|-----------|-----------|</tspan>
<tspan x="10" y="1498">", source: file:///home/travis/build/npmdoc/node-npmdoc-mocha-phantomjs/tmp/electron.15b47107e98\</tspan>
<tspan x="10" y="1514">0.f735a94878e2c.html (250)</tspan>
<tspan x="10" y="1530">[5890:0407/061837:INFO:CONSOLE(250)] "created coverage file:///tmp/build/coverage.html/index.htm\</tspan>
<tspan x="10" y="1546">l", source: file:///home/travis/build/npmdoc/node-npmdoc-mocha-phantomjs/tmp/electron.15b47107e9\</tspan>
<tspan x="10" y="1562">80.f735a94878e2c.html (250)</tspan>
<tspan x="10" y="1578">[node test-case 4 of 6 passed] - testCase_buildApp_default</tspan>
<tspan x="10" y="1594"></tspan>
<tspan x="10" y="1610">browserTest - created screenCapture file:///home/travis/build/npmdoc/node-npmdoc-mocha-phantomjs\</tspan>
<tspan x="10" y="1626">/tmp/build/screenCapture.npmTest.browser._2Fhome_2Ftravis_2Fbuild_2Fnpmdoc_2Fnode-npmdoc-mocha-p\</tspan>
<tspan x="10" y="1642">hantomjs_2Ftmp_2Fbuild_2Fapidoc.html.png</tspan>
<tspan x="10" y="1658"></tspan>
<tspan x="10" y="1674">browserTest - created screenCapture file:///home/travis/build/npmdoc/node-npmdoc-mocha-phantomjs\</tspan>
<tspan x="10" y="1690">/tmp/build/screenCapture.npmTest.browser._2Fhome_2Ftravis_2Fbuild_2Fnpmdoc_2Fnode-npmdoc-mocha-p\</tspan>
<tspan x="10" y="1706">hantomjs_2Ftmp_2Fbuild_2Fapidoc.html.html</tspan>
<tspan x="10" y="1722"></tspan>
<tspan x="10" y="1738">browserTest - exit-code 0 - /home/travis/build/npmdoc/node-npmdoc-mocha-phantomjs/tmp/build/apid\</tspan>
<tspan x="10" y="1754">oc.html</tspan>
<tspan x="10" y="1770"></tspan>
<tspan x="10" y="1786">[node test-case 5 of 6 passed] - testCase_buildApidoc_default</tspan>
<tspan x="10" y="1802"></tspan>
<tspan x="10" y="1818">browserTest - created screenCapture file:///home/travis/build/npmdoc/node-npmdoc-mocha-phantomjs\</tspan>
<tspan x="10" y="1834">/tmp/build/screenCapture.npmTest.browser..png</tspan>
<tspan x="10" y="1850"></tspan>
<tspan x="10" y="1866">browserTest - created screenCapture file:///home/travis/build/npmdoc/node-npmdoc-mocha-phantomjs\</tspan>
<tspan x="10" y="1882">/tmp/build/screenCapture.npmTest.browser..html</tspan>
<tspan x="10" y="1898"></tspan>
<tspan x="10" y="1914">browserTest - exit-code 0 - http://127.0.0.1:44701?modeTest=1</tspan>
<tspan x="10" y="1930"></tspan>
<tspan x="10" y="1946"></tspan>
<tspan x="10" y="1962">browserTest - merged coverage from /home/travis/build/npmdoc/node-npmdoc-mocha-phantomjs/tmp/cov\</tspan>
<tspan x="10" y="1978">erage.npmTest.browser.%2F.json</tspan>
<tspan x="10" y="1994"></tspan>
<tspan x="10" y="2010"></tspan>
<tspan x="10" y="2026">browserTest - merging test-report from /home/travis/build/npmdoc/node-npmdoc-mocha-phantomjs/tmp\</tspan>
<tspan x="10" y="2042">/test-report.npmTest.browser.%2F.json</tspan>
<tspan x="10" y="2058"></tspan>
<tspan x="10" y="2074">[node test-case 6 of 6 passed] - testCase_webpage_default</tspan>
<tspan x="10" y="2090">------------------------------------|-----------|-----------|-----------|-----------|</tspan>
<tspan x="10" y="2106">File                                |   % Stmts |% Branches |   % Funcs |   % Lines |</tspan>
<tspan x="10" y="2122">------------------------------------|-----------|-----------|-----------|-----------|</tspan>
<tspan x="10" y="2138">   node-npmdoc-mocha-phantomjs/     |       100 |       100 |       100 |       100 |</tspan>
<tspan x="10" y="2154">      example.js                    |       100 |       100 |       100 |       100 |</tspan>
<tspan x="10" y="2170">      lib.npmdoc_mocha_phantomjs.js |       100 |       100 |       100 |       100 |</tspan>
<tspan x="10" y="2186">      test.js                       |       100 |       100 |       100 |       100 |</tspan>
<tspan x="10" y="2202">------------------------------------|-----------|-----------|-----------|-----------|</tspan>
<tspan x="10" y="2218">All files                           |       100 |       100 |       100 |       100 |</tspan>
<tspan x="10" y="2234">------------------------------------|-----------|-----------|-----------|-----------|</tspan>
<tspan x="10" y="2250"></tspan>
<tspan x="10" y="2266">created coverage file:///home/travis/build/npmdoc/node-npmdoc-mocha-phantomjs/tmp/build/coverage\</tspan>
<tspan x="10" y="2282">.html/index.html</tspan>
<tspan x="10" y="2298">merging file:///home/travis/build/npmdoc/node-npmdoc-mocha-phantomjs/tmp/build/test-report.json \</tspan>
<tspan x="10" y="2314">to test-report</tspan>
<tspan x="10" y="2330"></tspan>
<tspan x="10" y="2346">-------------------------------------------------------</tspan>
<tspan x="10" y="2362">| test-report - buildNpmdoc - node - linux v6.10.2 - 2017-04-07T06:17:54.855Z</tspan>
<tspan x="10" y="2378">|   55263 ms            0 failed        6 passed      |</tspan>
<tspan x="10" y="2394">-------------------------------------------------------</tspan>
<tspan x="10" y="2410"></tspan>
<tspan x="10" y="2426">created test-report file:///home/travis/build/npmdoc/node-npmdoc-mocha-phantomjs/tmp/build/test-\</tspan>
<tspan x="10" y="2442">report.html</tspan>
<tspan x="10" y="2458"></tspan>
<tspan x="10" y="2474"></tspan>
<tspan x="10" y="2490">npmTest - 0 failed tests</tspan>
<tspan x="10" y="2506"></tspan>
<tspan x="10" y="2522"></tspan>
<tspan x="10" y="2538">[MODE_BUILD=npmTest] - 2017-04-07T06:18:53Z - EXIT_CODE - 0</tspan>
</text>
</svg>
